<?xml version="1.0" encoding="utf-8"?><svg xmlns="http://www.w3.org/2000/svg" xmlns:xlink="http://www.w3.org/1999/xlink"><symbol viewBox="0 0 18.164 13.922" id="check" xmlns="http://www.w3.org/2000/svg"><path d="M17.836 3.516L9.352 12l-1.594 1.594a1.136 1.136 0 01-1.594 0L4.57 12 .328 7.758a1.136 1.136 0 010-1.594L1.922 4.57a1.136 1.136 0 011.594 0l3.445 3.457L14.649.328a1.132 1.132 0 011.593 0l1.594 1.594a1.136 1.136 0 010 1.594z"/></symbol><symbol viewBox="0 0 551.13 551.13" id="down-arrow" xmlns="http://www.w3.org/2000/svg"><path d="M275.565 361.679L51.668 137.783H0l275.565 275.565L551.13 137.783h-51.668z"/></symbol><symbol viewBox="0 0 169.063 169.063" id="insta" xmlns="http://www.w3.org/2000/svg"><path d="M122.406 0H46.654C20.929 0 0 20.93 0 46.655v75.752c0 25.726 20.929 46.655 46.654 46.655h75.752c25.727 0 46.656-20.93 46.656-46.655V46.655C169.063 20.93 148.133 0 122.406 0zm31.657 122.407c0 17.455-14.201 31.655-31.656 31.655H46.654C29.2 154.063 15 139.862 15 122.407V46.655C15 29.201 29.2 15 46.654 15h75.752c17.455 0 31.656 14.201 31.656 31.655v75.752z"/><path d="M84.531 40.97c-24.021 0-43.563 19.542-43.563 43.563 0 24.02 19.542 43.561 43.563 43.561s43.563-19.541 43.563-43.561c0-24.021-19.542-43.563-43.563-43.563zm0 72.123c-15.749 0-28.563-12.812-28.563-28.561 0-15.75 12.813-28.563 28.563-28.563s28.563 12.813 28.563 28.563c0 15.749-12.814 28.561-28.563 28.561zm45.39-84.842c-2.89 0-5.729 1.17-7.77 3.22a11.053 11.053 0 00-3.23 7.78c0 2.891 1.18 5.73 3.23 7.78 2.04 2.04 4.88 3.22 7.77 3.22 2.9 0 5.73-1.18 7.78-3.22 2.05-2.05 3.22-4.89 3.22-7.78 0-2.9-1.17-5.74-3.22-7.78-2.04-2.05-4.88-3.22-7.78-3.22z"/></symbol><symbol viewBox="0 0 52 52" id="twitch" xmlns="http://www.w3.org/2000/svg"><path d="M9.5 37h10v5a1 1 0 001.707.707L26.914 37H38c.265 0 .52-.105.707-.293l6.5-6.5a.996.996 0 00.293-.707V6a1 1 0 00-1-1h-35a1 1 0 00-1 1v30a1 1 0 001 1zm1-30h33v22.086L37.586 35H26.5a.997.997 0 00-.707.293L21.5 39.586V36a1 1 0 00-1-1h-10V7z"/><path d="M50.5 0H5a1 1 0 00-.864.496l-3.5 6A1.003 1.003 0 00.5 7v37a1 1 0 001 1h11v6a1 1 0 001 1h7c.247 0 .485-.092.669-.257L28.662 45H38c.251 0 .493-.095.677-.264l12.5-11.5a1 1 0 00.323-.736V1a1 1 0 00-1-1zm-1 32.062L37.61 43h-9.332c-.247 0-.485.092-.669.257L20.116 50H14.5v-6a1 1 0 00-1-1h-11V7.271L5.574 2H49.5v30.062z"/><path d="M21.5 28h4a1 1 0 001-1V14a1 1 0 00-1-1h-4a1 1 0 00-1 1v13a1 1 0 001 1zm1-13h2v11h-2V15zm9 13h4a1 1 0 001-1V14a1 1 0 00-1-1h-4a1 1 0 00-1 1v13a1 1 0 001 1zm1-13h2v11h-2V15z"/></symbol></svg>